<svg width="100" height="100" viewBox="0 0 100 100" fill="none" xmlns="http://www.w3.org/2000/svg">
<g clip-path="url(#clip0_7_21)">
<circle cx="50" cy="50" r="50" fill="white"/>
<path d="M17.0674 65.7364C17.0674 69.1884 19.6383 72.1271 23.794 72.1271C25.6782 72.1271 26.8932 71.5606 28.0378 70.6932L27.1397 68.976C26.2769 69.631 25.1499 70.109 23.8116 70.109C21.0118 70.109 19.3742 68.144 19.3742 65.7364C19.3742 63.3288 21.0118 61.3638 23.8116 61.3638C25.1499 61.3638 26.2769 61.8595 27.1397 62.4968L28.0378 60.7974C26.8932 59.9299 25.6782 59.3457 23.794 59.3457C19.6383 59.3457 17.0674 62.2844 17.0674 65.7364ZM29.701 71.9324H31.8668V67.4536C31.8668 65.4178 33.0819 64.6211 34.1384 64.6211C35.2125 64.6211 35.8817 65.4355 35.8817 66.9933V71.9324H38.0476V66.9756C38.0476 64.3733 36.9734 62.7801 34.7371 62.7801C33.4693 62.7801 32.4303 63.2934 31.8668 64.4795V59.1333H29.701V71.9324ZM47.2294 62.9748V64.3025C46.5074 63.258 45.3981 62.7801 44.2006 62.7801C41.4713 62.7801 39.816 64.8867 39.816 67.4182C39.816 70.0205 41.5417 72.1271 44.183 72.1271C45.5037 72.1271 46.5955 71.5783 47.2294 70.587V71.9324H49.3953V62.9748H47.2294ZM41.9995 67.4359C41.9995 65.8957 42.9328 64.6034 44.5704 64.6034C46.1728 64.6034 47.2822 65.7718 47.2822 67.5244C47.2822 69.2947 46.1024 70.3037 44.6233 70.3037C43.0032 70.3037 41.9995 69.0468 41.9995 67.4359ZM51.867 71.9324H54.0329V67.4536C54.0329 65.5594 55.0542 64.6211 56.3221 64.6211C57.3962 64.6211 58.0477 65.4355 58.0477 66.9933V71.9324H60.2136V66.9756C60.2136 64.3733 59.1571 62.7801 56.9208 62.7801C55.6529 62.7801 54.5964 63.2934 54.0329 64.4795V62.9748H51.867V71.9324ZM64.1654 67.4359C64.1654 65.8957 65.0987 64.6034 66.7363 64.6034C68.3388 64.6034 69.4481 65.7718 69.4481 67.5244C69.4481 69.2947 68.2683 70.3037 66.7892 70.3037C65.1692 70.3037 64.1654 69.0468 64.1654 67.4359ZM62.7919 74.9064C63.69 75.6322 64.8698 76.181 66.8244 76.181C69.6418 76.181 71.5612 74.6586 71.5612 70.9587V62.9748H69.3953V64.3025C68.6733 63.258 67.564 62.7801 66.3666 62.7801C63.6372 62.7801 61.9819 64.8867 61.9819 67.4182C61.9819 70.0205 63.7076 72.1271 66.349 72.1271C67.6168 72.1271 68.779 71.5429 69.3953 70.6047V71.6491C69.3953 73.5787 68.0922 74.2868 66.5603 74.2868C65.4861 74.2868 64.3591 73.8265 63.6548 73.207C63.373 73.7734 63.0913 74.3399 62.7919 74.9064ZM81.3234 69.1884C80.5662 69.8788 79.7562 70.286 78.6293 70.286C76.7275 70.286 75.5653 69.1707 75.5653 67.7545H82.9611C82.9611 64.3025 80.6719 62.7801 78.2771 62.7801C75.4596 62.7801 73.3994 64.8513 73.3994 67.489C73.3994 70.0382 75.3364 72.1271 78.5236 72.1271C79.9147 72.1271 81.3586 71.7553 82.5561 70.4099L81.3234 69.1884ZM78.2771 64.5149C79.2103 64.5149 80.4078 64.9044 80.7423 66.2852H75.6709C76.1464 64.9044 77.3262 64.5149 78.2771 64.5149Z" fill="#4170BC"/>
<path d="M17.0674 65.7364C17.0674 69.1884 19.6383 72.1271 23.794 72.1271C25.6782 72.1271 26.8932 71.5606 28.0378 70.6932L27.1397 68.976C26.2769 69.631 25.1499 70.109 23.8116 70.109C21.0118 70.109 19.3742 68.144 19.3742 65.7364C19.3742 63.3288 21.0118 61.3638 23.8116 61.3638C25.1499 61.3638 26.2769 61.8595 27.1397 62.4968L28.0378 60.7974C26.8932 59.9299 25.6782 59.3457 23.794 59.3457C19.6383 59.3457 17.0674 62.2844 17.0674 65.7364ZM29.701 71.9324H31.8668V67.4536C31.8668 65.4178 33.0819 64.6211 34.1384 64.6211C35.2125 64.6211 35.8817 65.4355 35.8817 66.9933V71.9324H38.0476V66.9756C38.0476 64.3733 36.9734 62.7801 34.7371 62.7801C33.4693 62.7801 32.4303 63.2934 31.8668 64.4795V59.1333H29.701V71.9324ZM47.2294 62.9748V64.3025C46.5074 63.258 45.3981 62.7801 44.2006 62.7801C41.4713 62.7801 39.816 64.8867 39.816 67.4182C39.816 70.0205 41.5417 72.1271 44.183 72.1271C45.5037 72.1271 46.5955 71.5783 47.2294 70.587V71.9324H49.3953V62.9748H47.2294ZM41.9995 67.4359C41.9995 65.8957 42.9328 64.6034 44.5704 64.6034C46.1728 64.6034 47.2822 65.7718 47.2822 67.5244C47.2822 69.2947 46.1024 70.3037 44.6233 70.3037C43.0032 70.3037 41.9995 69.0468 41.9995 67.4359ZM51.867 71.9324H54.0329V67.4536C54.0329 65.5594 55.0542 64.6211 56.3221 64.6211C57.3962 64.6211 58.0477 65.4355 58.0477 66.9933V71.9324H60.2136V66.9756C60.2136 64.3733 59.1571 62.7801 56.9208 62.7801C55.6529 62.7801 54.5964 63.2934 54.0329 64.4795V62.9748H51.867V71.9324ZM64.1654 67.4359C64.1654 65.8957 65.0987 64.6034 66.7363 64.6034C68.3388 64.6034 69.4481 65.7718 69.4481 67.5244C69.4481 69.2947 68.2683 70.3037 66.7892 70.3037C65.1692 70.3037 64.1654 69.0468 64.1654 67.4359ZM62.7919 74.9064C63.69 75.6322 64.8698 76.181 66.8244 76.181C69.6418 76.181 71.5612 74.6586 71.5612 70.9587V62.9748H69.3953V64.3025C68.6733 63.258 67.564 62.7801 66.3666 62.7801C63.6372 62.7801 61.9819 64.8867 61.9819 67.4182C61.9819 70.0205 63.7076 72.1271 66.349 72.1271C67.6168 72.1271 68.779 71.5429 69.3953 70.6047V71.6491C69.3953 73.5787 68.0922 74.2868 66.5603 74.2868C65.4861 74.2868 64.3591 73.8265 63.6548 73.207C63.373 73.7734 63.0913 74.3399 62.7919 74.9064ZM81.3234 69.1884C80.5662 69.8788 79.7562 70.286 78.6293 70.286C76.7275 70.286 75.5653 69.1707 75.5653 67.7545H82.9611C82.9611 64.3025 80.6719 62.7801 78.2771 62.7801C75.4596 62.7801 73.3994 64.8513 73.3994 67.489C73.3994 70.0382 75.3364 72.1271 78.5236 72.1271C79.9147 72.1271 81.3586 71.7553 82.5561 70.4099L81.3234 69.1884ZM78.2771 64.5149C79.2103 64.5149 80.4078 64.9044 80.7423 66.2852H75.6709C76.1464 64.9044 77.3262 64.5149 78.2771 64.5149Z" fill="#4170BC"/>
<path d="M17.0674 65.7364C17.0674 69.1884 19.6383 72.1271 23.794 72.1271C25.6782 72.1271 26.8932 71.5606 28.0378 70.6932L27.1397 68.976C26.2769 69.631 25.1499 70.109 23.8116 70.109C21.0118 70.109 19.3742 68.144 19.3742 65.7364C19.3742 63.3288 21.0118 61.3638 23.8116 61.3638C25.1499 61.3638 26.2769 61.8595 27.1397 62.4968L28.0378 60.7974C26.8932 59.9299 25.6782 59.3457 23.794 59.3457C19.6383 59.3457 17.0674 62.2844 17.0674 65.7364ZM29.701 71.9324H31.8668V67.4536C31.8668 65.4178 33.0819 64.6211 34.1384 64.6211C35.2125 64.6211 35.8817 65.4355 35.8817 66.9933V71.9324H38.0476V66.9756C38.0476 64.3733 36.9734 62.7801 34.7371 62.7801C33.4693 62.7801 32.4303 63.2934 31.8668 64.4795V59.1333H29.701V71.9324ZM47.2294 62.9748V64.3025C46.5074 63.258 45.3981 62.7801 44.2006 62.7801C41.4713 62.7801 39.816 64.8867 39.816 67.4182C39.816 70.0205 41.5417 72.1271 44.183 72.1271C45.5037 72.1271 46.5955 71.5783 47.2294 70.587V71.9324H49.3953V62.9748H47.2294ZM41.9995 67.4359C41.9995 65.8957 42.9328 64.6034 44.5704 64.6034C46.1728 64.6034 47.2822 65.7718 47.2822 67.5244C47.2822 69.2947 46.1024 70.3037 44.6233 70.3037C43.0032 70.3037 41.9995 69.0468 41.9995 67.4359ZM51.867 71.9324H54.0329V67.4536C54.0329 65.5594 55.0542 64.6211 56.3221 64.6211C57.3962 64.6211 58.0477 65.4355 58.0477 66.9933V71.9324H60.2136V66.9756C60.2136 64.3733 59.1571 62.7801 56.9208 62.7801C55.6529 62.7801 54.5964 63.2934 54.0329 64.4795V62.9748H51.867V71.9324ZM64.1654 67.4359C64.1654 65.8957 65.0987 64.6034 66.7363 64.6034C68.3388 64.6034 69.4481 65.7718 69.4481 67.5244C69.4481 69.2947 68.2683 70.3037 66.7892 70.3037C65.1692 70.3037 64.1654 69.0468 64.1654 67.4359ZM62.7919 74.9064C63.69 75.6322 64.8698 76.181 66.8244 76.181C69.6418 76.181 71.5612 74.6586 71.5612 70.9587V62.9748H69.3953V64.3025C68.6733 63.258 67.564 62.7801 66.3666 62.7801C63.6372 62.7801 61.9819 64.8867 61.9819 67.4182C61.9819 70.0205 63.7076 72.1271 66.349 72.1271C67.6168 72.1271 68.779 71.5429 69.3953 70.6047V71.6491C69.3953 73.5787 68.0922 74.2868 66.5603 74.2868C65.4861 74.2868 64.3591 73.8265 63.6548 73.207C63.373 73.7734 63.0913 74.3399 62.7919 74.9064ZM81.3234 69.1884C80.5662 69.8788 79.7562 70.286 78.6293 70.286C76.7275 70.286 75.5653 69.1707 75.5653 67.7545H82.9611C82.9611 64.3025 80.6719 62.7801 78.2771 62.7801C75.4596 62.7801 73.3994 64.8513 73.3994 67.489C73.3994 70.0382 75.3364 72.1271 78.5236 72.1271C79.9147 72.1271 81.3586 71.7553 82.5561 70.4099L81.3234 69.1884ZM78.2771 64.5149C79.2103 64.5149 80.4078 64.9044 80.7423 66.2852H75.6709C76.1464 64.9044 77.3262 64.5149 78.2771 64.5149Z" fill="#4170BC"/>
<path d="M17.0674 65.7364C17.0674 69.1884 19.6383 72.1271 23.794 72.1271C25.6782 72.1271 26.8932 71.5606 28.0378 70.6932L27.1397 68.976C26.2769 69.631 25.1499 70.109 23.8116 70.109C21.0118 70.109 19.3742 68.144 19.3742 65.7364C19.3742 63.3288 21.0118 61.3638 23.8116 61.3638C25.1499 61.3638 26.2769 61.8595 27.1397 62.4968L28.0378 60.7974C26.8932 59.9299 25.6782 59.3457 23.794 59.3457C19.6383 59.3457 17.0674 62.2844 17.0674 65.7364ZM29.701 71.9324H31.8668V67.4536C31.8668 65.4178 33.0819 64.6211 34.1384 64.6211C35.2125 64.6211 35.8817 65.4355 35.8817 66.9933V71.9324H38.0476V66.9756C38.0476 64.3733 36.9734 62.7801 34.7371 62.7801C33.4693 62.7801 32.4303 63.2934 31.8668 64.4795V59.1333H29.701V71.9324ZM47.2294 62.9748V64.3025C46.5074 63.258 45.3981 62.7801 44.2006 62.7801C41.4713 62.7801 39.816 64.8867 39.816 67.4182C39.816 70.0205 41.5417 72.1271 44.183 72.1271C45.5037 72.1271 46.5955 71.5783 47.2294 70.587V71.9324H49.3953V62.9748H47.2294ZM41.9995 67.4359C41.9995 65.8957 42.9328 64.6034 44.5704 64.6034C46.1728 64.6034 47.2822 65.7718 47.2822 67.5244C47.2822 69.2947 46.1024 70.3037 44.6233 70.3037C43.0032 70.3037 41.9995 69.0468 41.9995 67.4359ZM51.867 71.9324H54.0329V67.4536C54.0329 65.5594 55.0542 64.6211 56.3221 64.6211C57.3962 64.6211 58.0477 65.4355 58.0477 66.9933V71.9324H60.2136V66.9756C60.2136 64.3733 59.1571 62.7801 56.9208 62.7801C55.6529 62.7801 54.5964 63.2934 54.0329 64.4795V62.9748H51.867V71.9324ZM64.1654 67.4359C64.1654 65.8957 65.0987 64.6034 66.7363 64.6034C68.3388 64.6034 69.4481 65.7718 69.4481 67.5244C69.4481 69.2947 68.2683 70.3037 66.7892 70.3037C65.1692 70.3037 64.1654 69.0468 64.1654 67.4359ZM62.7919 74.9064C63.69 75.6322 64.8698 76.181 66.8244 76.181C69.6418 76.181 71.5612 74.6586 71.5612 70.9587V62.9748H69.3953V64.3025C68.6733 63.258 67.564 62.7801 66.3666 62.7801C63.6372 62.7801 61.9819 64.8867 61.9819 67.4182C61.9819 70.0205 63.7076 72.1271 66.349 72.1271C67.6168 72.1271 68.779 71.5429 69.3953 70.6047V71.6491C69.3953 73.5787 68.0922 74.2868 66.5603 74.2868C65.4861 74.2868 64.3591 73.8265 63.6548 73.207C63.373 73.7734 63.0913 74.3399 62.7919 74.9064ZM81.3234 69.1884C80.5662 69.8788 79.7562 70.286 78.6293 70.286C76.7275 70.286 75.5653 69.1707 75.5653 67.7545H82.9611C82.9611 64.3025 80.6719 62.7801 78.2771 62.7801C75.4596 62.7801 73.3994 64.8513 73.3994 67.489C73.3994 70.0382 75.3364 72.1271 78.5236 72.1271C79.9147 72.1271 81.3586 71.7553 82.5561 70.4099L81.3234 69.1884ZM78.2771 64.5149C79.2103 64.5149 80.4078 64.9044 80.7423 66.2852H75.6709C76.1464 64.9044 77.3262 64.5149 78.2771 64.5149Z" fill="#4170BC"/>
<path d="M23.5502 35.9603V39.8296H31.0696V44.8429H23.5502V49.1162H32.0722V54.3986H17V30.6777H32.0722V35.9603H23.5502Z" fill="#4170BC"/>
<path d="M23.5502 35.9603V39.8296H31.0696V44.8429H23.5502V49.1162H32.0722V54.3986H17V30.6777H32.0722V35.9603H23.5502Z" fill="#4170BC"/>
<path d="M23.5502 35.9603V39.8296H31.0696V44.8429H23.5502V49.1162H32.0722V54.3986H17V30.6777H32.0722V35.9603H23.5502Z" fill="#4170BC"/>
<path d="M23.5502 35.9603V39.8296H31.0696V44.8429H23.5502V49.1162H32.0722V54.3986H17V30.6777H32.0722V35.9603H23.5502Z" fill="#4170BC"/>
<path d="M33.9053 44.9438C33.9053 42.9923 34.2506 41.2876 34.9412 39.8295C35.6542 38.3715 36.6234 37.25 37.8487 36.4649C39.0741 35.6798 40.4332 35.2872 41.926 35.2872C43.129 35.2872 44.1985 35.5452 45.1341 36.0611C46.0923 36.5546 46.8386 37.2387 47.3733 38.1136V29.5H53.9569V54.3985H47.3733V51.7742C46.8609 52.6489 46.1368 53.3443 45.2011 53.8603C44.2653 54.3761 43.1625 54.6341 41.8925 54.6341C40.3998 54.6341 39.0408 54.2416 37.8154 53.4565C36.6122 52.6714 35.6542 51.5499 34.9412 50.0918C34.2506 48.6114 33.9053 46.8954 33.9053 44.9438ZM47.4068 44.9438C47.4068 43.7326 47.0725 42.7792 46.4041 42.0839C45.758 41.3885 44.9559 41.0408 43.9979 41.0408C43.0176 41.0408 42.2045 41.3885 41.5583 42.0839C40.9122 42.7568 40.5892 43.7101 40.5892 44.9438C40.5892 46.1551 40.9122 47.1197 41.5583 47.8374C42.2045 48.5328 43.0176 48.8805 43.9979 48.8805C44.9559 48.8805 45.758 48.5328 46.4041 47.8374C47.0725 47.1422 47.4068 46.1776 47.4068 44.9438Z" fill="#4170BC"/>
<path d="M33.9053 44.9438C33.9053 42.9923 34.2506 41.2876 34.9412 39.8295C35.6542 38.3715 36.6234 37.25 37.8487 36.4649C39.0741 35.6798 40.4332 35.2872 41.926 35.2872C43.129 35.2872 44.1985 35.5452 45.1341 36.0611C46.0923 36.5546 46.8386 37.2387 47.3733 38.1136V29.5H53.9569V54.3985H47.3733V51.7742C46.8609 52.6489 46.1368 53.3443 45.2011 53.8603C44.2653 54.3761 43.1625 54.6341 41.8925 54.6341C40.3998 54.6341 39.0408 54.2416 37.8154 53.4565C36.6122 52.6714 35.6542 51.5499 34.9412 50.0918C34.2506 48.6114 33.9053 46.8954 33.9053 44.9438ZM47.4068 44.9438C47.4068 43.7326 47.0725 42.7792 46.4041 42.0839C45.758 41.3885 44.9559 41.0408 43.9979 41.0408C43.0176 41.0408 42.2045 41.3885 41.5583 42.0839C40.9122 42.7568 40.5892 43.7101 40.5892 44.9438C40.5892 46.1551 40.9122 47.1197 41.5583 47.8374C42.2045 48.5328 43.0176 48.8805 43.9979 48.8805C44.9559 48.8805 45.758 48.5328 46.4041 47.8374C47.0725 47.1422 47.4068 46.1776 47.4068 44.9438Z" fill="#4170BC"/>
<path d="M33.9053 44.9438C33.9053 42.9923 34.2506 41.2876 34.9412 39.8295C35.6542 38.3715 36.6234 37.25 37.8487 36.4649C39.0741 35.6798 40.4332 35.2872 41.926 35.2872C43.129 35.2872 44.1985 35.5452 45.1341 36.0611C46.0923 36.5546 46.8386 37.2387 47.3733 38.1136V29.5H53.9569V54.3985H47.3733V51.7742C46.8609 52.6489 46.1368 53.3443 45.2011 53.8603C44.2653 54.3761 43.1625 54.6341 41.8925 54.6341C40.3998 54.6341 39.0408 54.2416 37.8154 53.4565C36.6122 52.6714 35.6542 51.5499 34.9412 50.0918C34.2506 48.6114 33.9053 46.8954 33.9053 44.9438ZM47.4068 44.9438C47.4068 43.7326 47.0725 42.7792 46.4041 42.0839C45.758 41.3885 44.9559 41.0408 43.9979 41.0408C43.0176 41.0408 42.2045 41.3885 41.5583 42.0839C40.9122 42.7568 40.5892 43.7101 40.5892 44.9438C40.5892 46.1551 40.9122 47.1197 41.5583 47.8374C42.2045 48.5328 43.0176 48.8805 43.9979 48.8805C44.9559 48.8805 45.758 48.5328 46.4041 47.8374C47.0725 47.1422 47.4068 46.1776 47.4068 44.9438Z" fill="#4170BC"/>
<path d="M33.9053 44.9438C33.9053 42.9923 34.2506 41.2876 34.9412 39.8295C35.6542 38.3715 36.6234 37.25 37.8487 36.4649C39.0741 35.6798 40.4332 35.2872 41.926 35.2872C43.129 35.2872 44.1985 35.5452 45.1341 36.0611C46.0923 36.5546 46.8386 37.2387 47.3733 38.1136V29.5H53.9569V54.3985H47.3733V51.7742C46.8609 52.6489 46.1368 53.3443 45.2011 53.8603C44.2653 54.3761 43.1625 54.6341 41.8925 54.6341C40.3998 54.6341 39.0408 54.2416 37.8154 53.4565C36.6122 52.6714 35.6542 51.5499 34.9412 50.0918C34.2506 48.6114 33.9053 46.8954 33.9053 44.9438ZM47.4068 44.9438C47.4068 43.7326 47.0725 42.7792 46.4041 42.0839C45.758 41.3885 44.9559 41.0408 43.9979 41.0408C43.0176 41.0408 42.2045 41.3885 41.5583 42.0839C40.9122 42.7568 40.5892 43.7101 40.5892 44.9438C40.5892 46.1551 40.9122 47.1197 41.5583 47.8374C42.2045 48.5328 43.0176 48.8805 43.9979 48.8805C44.9559 48.8805 45.758 48.5328 46.4041 47.8374C47.0725 47.1422 47.4068 46.1776 47.4068 44.9438Z" fill="#4170BC"/>
<path d="M65.3426 54.6339C63.6493 54.6339 62.1344 54.3535 60.7976 53.7929C59.4831 53.2096 58.436 52.4245 57.6561 51.4376C56.8986 50.4281 56.4754 49.2954 56.3862 48.0392H62.7359C62.8251 48.6449 63.1036 49.116 63.5714 49.4524C64.0393 49.7888 64.6185 49.957 65.3091 49.957C65.8439 49.957 66.2673 49.8449 66.5791 49.6206C66.891 49.3964 67.047 49.1047 67.047 48.7458C67.047 48.2747 66.7908 47.927 66.2783 47.7027C65.7659 47.4784 64.9193 47.2316 63.7384 46.9626C62.4018 46.6934 61.2877 46.3906 60.3965 46.0541C59.5053 45.7176 58.7255 45.168 58.0572 44.4054C57.411 43.6427 57.088 42.6109 57.088 41.3099C57.088 40.1883 57.3887 39.1789 57.9904 38.2817C58.5919 37.362 59.472 36.633 60.6305 36.0946C61.8113 35.5563 63.226 35.2871 64.8747 35.2871C67.3256 35.2871 69.2527 35.8928 70.6563 37.104C72.06 38.3153 72.8732 39.9079 73.0959 41.8819H67.1807C67.0692 41.2762 66.8019 40.8164 66.3786 40.5024C65.9776 40.1659 65.4317 39.9977 64.7411 39.9977C64.2064 39.9977 63.7942 40.0986 63.5046 40.3005C63.2372 40.5024 63.1036 40.7827 63.1036 41.1416C63.1036 41.5903 63.3598 41.9379 63.8722 42.1847C64.3846 42.409 65.209 42.6445 66.3452 42.8913C67.7042 43.1829 68.8294 43.5081 69.7205 43.867C70.634 44.226 71.425 44.8091 72.0933 45.6166C72.7841 46.4018 73.1294 47.4784 73.1294 48.8468C73.1294 49.9458 72.8062 50.9329 72.1602 51.8077C71.5364 52.6824 70.634 53.3779 69.4532 53.8938C68.2947 54.3872 66.9245 54.6339 65.3426 54.6339Z" fill="#4170BC"/>
<path d="M65.3426 54.6339C63.6493 54.6339 62.1344 54.3535 60.7976 53.7929C59.4831 53.2096 58.436 52.4245 57.6561 51.4376C56.8986 50.4281 56.4754 49.2954 56.3862 48.0392H62.7359C62.8251 48.6449 63.1036 49.116 63.5714 49.4524C64.0393 49.7888 64.6185 49.957 65.3091 49.957C65.8439 49.957 66.2673 49.8449 66.5791 49.6206C66.891 49.3964 67.047 49.1047 67.047 48.7458C67.047 48.2747 66.7908 47.927 66.2783 47.7027C65.7659 47.4784 64.9193 47.2316 63.7384 46.9626C62.4018 46.6934 61.2877 46.3906 60.3965 46.0541C59.5053 45.7176 58.7255 45.168 58.0572 44.4054C57.411 43.6427 57.088 42.6109 57.088 41.3099C57.088 40.1883 57.3887 39.1789 57.9904 38.2817C58.5919 37.362 59.472 36.633 60.6305 36.0946C61.8113 35.5563 63.226 35.2871 64.8747 35.2871C67.3256 35.2871 69.2527 35.8928 70.6563 37.104C72.06 38.3153 72.8732 39.9079 73.0959 41.8819H67.1807C67.0692 41.2762 66.8019 40.8164 66.3786 40.5024C65.9776 40.1659 65.4317 39.9977 64.7411 39.9977C64.2064 39.9977 63.7942 40.0986 63.5046 40.3005C63.2372 40.5024 63.1036 40.7827 63.1036 41.1416C63.1036 41.5903 63.3598 41.9379 63.8722 42.1847C64.3846 42.409 65.209 42.6445 66.3452 42.8913C67.7042 43.1829 68.8294 43.5081 69.7205 43.867C70.634 44.226 71.425 44.8091 72.0933 45.6166C72.7841 46.4018 73.1294 47.4784 73.1294 48.8468C73.1294 49.9458 72.8062 50.9329 72.1602 51.8077C71.5364 52.6824 70.634 53.3779 69.4532 53.8938C68.2947 54.3872 66.9245 54.6339 65.3426 54.6339Z" fill="#4170BC"/>
<path d="M65.3426 54.6339C63.6493 54.6339 62.1344 54.3535 60.7976 53.7929C59.4831 53.2096 58.436 52.4245 57.6561 51.4376C56.8986 50.4281 56.4754 49.2954 56.3862 48.0392H62.7359C62.8251 48.6449 63.1036 49.116 63.5714 49.4524C64.0393 49.7888 64.6185 49.957 65.3091 49.957C65.8439 49.957 66.2673 49.8449 66.5791 49.6206C66.891 49.3964 67.047 49.1047 67.047 48.7458C67.047 48.2747 66.7908 47.927 66.2783 47.7027C65.7659 47.4784 64.9193 47.2316 63.7384 46.9626C62.4018 46.6934 61.2877 46.3906 60.3965 46.0541C59.5053 45.7176 58.7255 45.168 58.0572 44.4054C57.411 43.6427 57.088 42.6109 57.088 41.3099C57.088 40.1883 57.3887 39.1789 57.9904 38.2817C58.5919 37.362 59.472 36.633 60.6305 36.0946C61.8113 35.5563 63.226 35.2871 64.8747 35.2871C67.3256 35.2871 69.2527 35.8928 70.6563 37.104C72.06 38.3153 72.8732 39.9079 73.0959 41.8819H67.1807C67.0692 41.2762 66.8019 40.8164 66.3786 40.5024C65.9776 40.1659 65.4317 39.9977 64.7411 39.9977C64.2064 39.9977 63.7942 40.0986 63.5046 40.3005C63.2372 40.5024 63.1036 40.7827 63.1036 41.1416C63.1036 41.5903 63.3598 41.9379 63.8722 42.1847C64.3846 42.409 65.209 42.6445 66.3452 42.8913C67.7042 43.1829 68.8294 43.5081 69.7205 43.867C70.634 44.226 71.425 44.8091 72.0933 45.6166C72.7841 46.4018 73.1294 47.4784 73.1294 48.8468C73.1294 49.9458 72.8062 50.9329 72.1602 51.8077C71.5364 52.6824 70.634 53.3779 69.4532 53.8938C68.2947 54.3872 66.9245 54.6339 65.3426 54.6339Z" fill="#4170BC"/>
<path d="M65.3426 54.6339C63.6493 54.6339 62.1344 54.3535 60.7976 53.7929C59.4831 53.2096 58.436 52.4245 57.6561 51.4376C56.8986 50.4281 56.4754 49.2954 56.3862 48.0392H62.7359C62.8251 48.6449 63.1036 49.116 63.5714 49.4524C64.0393 49.7888 64.6185 49.957 65.3091 49.957C65.8439 49.957 66.2673 49.8449 66.5791 49.6206C66.891 49.3964 67.047 49.1047 67.047 48.7458C67.047 48.2747 66.7908 47.927 66.2783 47.7027C65.7659 47.4784 64.9193 47.2316 63.7384 46.9626C62.4018 46.6934 61.2877 46.3906 60.3965 46.0541C59.5053 45.7176 58.7255 45.168 58.0572 44.4054C57.411 43.6427 57.088 42.6109 57.088 41.3099C57.088 40.1883 57.3887 39.1789 57.9904 38.2817C58.5919 37.362 59.472 36.633 60.6305 36.0946C61.8113 35.5563 63.226 35.2871 64.8747 35.2871C67.3256 35.2871 69.2527 35.8928 70.6563 37.104C72.06 38.3153 72.8732 39.9079 73.0959 41.8819H67.1807C67.0692 41.2762 66.8019 40.8164 66.3786 40.5024C65.9776 40.1659 65.4317 39.9977 64.7411 39.9977C64.2064 39.9977 63.7942 40.0986 63.5046 40.3005C63.2372 40.5024 63.1036 40.7827 63.1036 41.1416C63.1036 41.5903 63.3598 41.9379 63.8722 42.1847C64.3846 42.409 65.209 42.6445 66.3452 42.8913C67.7042 43.1829 68.8294 43.5081 69.7205 43.867C70.634 44.226 71.425 44.8091 72.0933 45.6166C72.7841 46.4018 73.1294 47.4784 73.1294 48.8468C73.1294 49.9458 72.8062 50.9329 72.1602 51.8077C71.5364 52.6824 70.634 53.3779 69.4532 53.8938C68.2947 54.3872 66.9245 54.6339 65.3426 54.6339Z" fill="#4170BC"/>
<path d="M79.1899 54.6677C78.0313 54.6677 77.0956 54.3536 76.3827 53.7256C75.692 53.0751 75.3467 52.2563 75.3467 51.2694C75.3467 50.2824 75.692 49.4638 76.3827 48.8132C77.0956 48.1627 78.0313 47.8374 79.1899 47.8374C80.3261 47.8374 81.2396 48.1627 81.9303 48.8132C82.6432 49.4638 82.9997 50.2824 82.9997 51.2694C82.9997 52.2339 82.6432 53.0415 81.9303 53.692C81.2396 54.3424 80.3261 54.6677 79.1899 54.6677Z" fill="#4170BC"/>
<path d="M79.1899 54.6677C78.0313 54.6677 77.0956 54.3536 76.3827 53.7256C75.692 53.0751 75.3467 52.2563 75.3467 51.2694C75.3467 50.2824 75.692 49.4638 76.3827 48.8132C77.0956 48.1627 78.0313 47.8374 79.1899 47.8374C80.3261 47.8374 81.2396 48.1627 81.9303 48.8132C82.6432 49.4638 82.9997 50.2824 82.9997 51.2694C82.9997 52.2339 82.6432 53.0415 81.9303 53.692C81.2396 54.3424 80.3261 54.6677 79.1899 54.6677Z" fill="#4170BC"/>
<path d="M79.1899 54.6677C78.0313 54.6677 77.0956 54.3536 76.3827 53.7256C75.692 53.0751 75.3467 52.2563 75.3467 51.2694C75.3467 50.2824 75.692 49.4638 76.3827 48.8132C77.0956 48.1627 78.0313 47.8374 79.1899 47.8374C80.3261 47.8374 81.2396 48.1627 81.9303 48.8132C82.6432 49.4638 82.9997 50.2824 82.9997 51.2694C82.9997 52.2339 82.6432 53.0415 81.9303 53.692C81.2396 54.3424 80.3261 54.6677 79.1899 54.6677Z" fill="#4170BC"/>
<path d="M79.1899 54.6677C78.0313 54.6677 77.0956 54.3536 76.3827 53.7256C75.692 53.0751 75.3467 52.2563 75.3467 51.2694C75.3467 50.2824 75.692 49.4638 76.3827 48.8132C77.0956 48.1627 78.0313 47.8374 79.1899 47.8374C80.3261 47.8374 81.2396 48.1627 81.9303 48.8132C82.6432 49.4638 82.9997 50.2824 82.9997 51.2694C82.9997 52.2339 82.6432 53.0415 81.9303 53.692C81.2396 54.3424 80.3261 54.6677 79.1899 54.6677Z" fill="#4170BC"/>
</g>
<defs>
<clipPath id="clip0_7_21">
<rect width="100" height="100" fill="white"/>
</clipPath>
</defs>
</svg>
